# xmcd CD database file
#
# Track frame offsets:
#	150
#	17267
#	33722
#	57644
#	73526
#	86053
#	103972
#	126133
#	146728
#	180315
#	225569
#	244082
#	261424
#	277035
#	312656
#
# Disc length: 4303 seconds
#
# Revision: 0
# Processed by: cddbd v1.5.2PL0 Copyright (c) Steve Scherf et al.
# Submitted via: CDex 1.70beta2
#
DISCID=e010cd0f
DTITLE=Schweinsohr Selection - Ear Mail - Live
DYEAR=2000
DGENRE=Blues
TTITLE0=I Wish
TTITLE1=Hold On, I'm Coming
TTITLE2=You Can Talk To Me
TTITLE3=Soul Man
TTITLE4=Soul Sister, Brown Sugar
TTITLE5=War In Sand
TTITLE6=Superstition
TTITLE7=I Wanna Be Your Lover
TTITLE8=Summer Breeze
TTITLE9=Street Life
TTITLE10=If You Don't Know Me By Now
TTITLE11=Knock On Wood
TTITLE12=Hot Life
TTITLE13=The Letter
TTITLE14=Mercedes Benz
EXTD=YEAR: 2000
EXTT0=
EXTT1=
EXTT2=
EXTT3=
EXTT4=
EXTT5=
EXTT6=
EXTT7=
EXTT8=
EXTT9=
EXTT10=
EXTT11=
EXTT12=
EXTT13=
EXTT14=
PLAYORDER=
